<svg width="32" height="29" viewBox="0 0 32 29" fill="none" xmlns="http://www.w3.org/2000/svg">
<path d="M11.5194 13.5198H13.3381L12.4288 10.9478L11.5194 13.5198Z" fill="black" fill-opacity="0.9"/>
<path d="M15.7676 0.000295347C0.638389 -0.0789795 -6.37635 15.821 7.38249 22.8841C7.1406 23.714 5.82873 28.2234 5.77652 28.5777C5.73918 28.855 5.95099 29.0869 6.29499 28.9682C6.79165 28.8991 12.0534 25.2199 12.9641 24.5811C34.7812 27.1804 39.0774 0.997974 15.7676 0.000295347ZM7.95152 15.847C7.92178 16.9858 6.16149 16.9901 6.13042 15.847V10.4623H4.7095C3.53278 10.4327 3.53047 8.71756 4.7095 8.6873H9.37211C10.5495 8.71822 10.5512 10.431 9.37211 10.4623H7.95119L7.95152 15.847ZM15.6044 16.576C15.1956 16.7904 14.4052 16.7385 14.2677 16.3006L13.8166 15.1257H11.0399L10.5888 16.3013C10.452 16.7381 9.66092 16.7908 9.25282 16.576C9.00168 16.4608 8.76046 16.1437 9.03704 15.2888L11.215 9.58202C11.6608 8.41165 13.1937 8.40638 13.6422 9.58301L15.8195 15.2872C16.0967 16.1437 15.8555 16.4608 15.6044 16.576ZM20.2065 16.5802H17.285C16.8039 16.5802 16.4123 16.2076 16.4123 15.7493V9.59321C16.4437 8.40014 18.2393 8.39652 18.2714 9.59321V14.9184H20.2065C21.3558 14.9467 21.3584 16.5513 20.2065 16.5802ZM27.3346 15.8977C27.2536 16.6747 26.1565 16.9612 25.7061 16.3181L23.5708 13.5017L23.2549 13.8162V15.7937C23.2248 16.9868 21.4648 16.9914 21.4334 15.7941V9.59321C21.4652 8.39915 23.2225 8.39685 23.2545 9.59321V11.5415L25.795 9.01262C26.0997 8.70506 26.6297 8.77118 26.9268 9.07874C27.2358 9.37117 27.3029 9.90471 26.9936 10.2054L24.9183 12.2708L27.1598 15.2267C27.3062 15.4178 27.3689 15.6599 27.3346 15.8977Z" fill="black" fill-opacity="0.9"/>
</svg>
